<?xml version="1.0" encoding="UTF-8"?> <svg xmlns="http://www.w3.org/2000/svg" width="730" height="216" fill="none"><g clip-path="url(#clip0_659_4253)"><path d="M75.789 35.312a79.822 79.822 0 0150.376 19.122l-10.249 21.531A69.382 69.382 0 0077.363 63.4c-21.622 0-39.87 14.333-43.661 41.489-3.566 25.324 9.413 37.825 29.557 37.857 13.815 0 29.718-5.367 44.497-14.172l6.425 23.684a99.286 99.286 0 01-54.617 18.608c-41.283 0-64.254-31.237-58.986-69.641a75.336 75.336 0 0125.09-47.245 75.294 75.294 0 0150.12-18.668zM181.745 72.75c28.497 0 43.79 19.603 38.971 52.222a79.899 79.899 0 01-.739 4.435h-62.552a8.626 8.626 0 000 1.286c.931 10.894 7.807 16.068 18.087 16.068a76.134 76.134 0 0028.465-7.295l4.434 19.282a70.126 70.126 0 01-39.806 12.502c-29.654 0-46.135-22.014-42.312-49.202a55.988 55.988 0 0118.387-35.16 55.957 55.957 0 0137.065-14.138zm-21.75 39.432h32.127c0-9.448-3.213-15.426-13.204-15.426-9.06 0-15.582 6.042-18.923 15.426zm107.209 21.34c-1.381 9.834 1.606 12.855 7.454 12.855a24.732 24.732 0 008.77-2.025l5.848 20.054a65.085 65.085 0 01-26.602 6.427c-17.445 0-30.489-10.38-27.148-34.129l13.912-98.886h31.195l-13.429 95.704zm85.845-60.772c13.782 0 28.914 3.504 38.296 12.18l-12.659 17.194c-5.686-5.014-15.421-7.135-24.32-7.135-8.899 0-12.851 2.378-13.622 7.231-.514 3.214 1.124 4.724 12.015 7.552 17.478 4.146 38.136 9.288 34.473 31.944-3.662 22.657-26.698 29.438-46.006 29.438-17.092 0-33.445-5.624-41.252-15.458l12.851-16.808c5.494 7.295 16.995 9.641 26.73 9.641s16.257-2.892 17.028-8.484c.546-4.338-3.213-5.174-12.659-7.745-23.838-6.009-37.075-10.798-33.99-30.433 3.501-22.24 23.292-29.277 43.147-29.277l-.032.16zm42.665 95.609l13.076-93.197h31.228L426.91 168.36h-31.196zm50.183-117.717a18.961 18.961 0 01-18.827 15.682 16.509 16.509 0 01-16.45-12.03 16.504 16.504 0 01-.384-7.252 18.928 18.928 0 0118.698-15.49 16.507 16.507 0 0112.929 5.57 16.52 16.52 0 013.938 13.52h.096zm58.536 22.108c31.742 0 49.926 23.235 45.878 51.001-3.727 25.935-25.862 47.402-56.705 47.402-32.127 0-49.829-23.267-45.781-51.001 3.887-26.867 26.216-47.434 56.608-47.402zm-25.862 51.001c-1.767 13.209 4.465 21.5 15.806 21.468 12.851 0 22.939-10.155 25.028-25.067 1.799-12.405-3.566-21.5-15.646-21.468-13.108-.224-23.261 10.316-25.188 24.907v.16zM643.995 72.46h3.212l-7.325 28.377a12.061 12.061 0 00-2.216 0 60.129 60.129 0 00-34.088 12.565l-7.71 54.954H564.64l13.108-93.197h31.196l-1.639 11.666a60.743 60.743 0 0136.818-14.397l-.128.032zm20.754 57.205c5.873 0 10.634-4.762 10.634-10.637 0-5.875-4.761-10.637-10.634-10.637s-10.634 4.762-10.634 10.637c0 5.875 4.761 10.637 10.634 10.637z" fill="#18233F"></path><path d="M701.182 129.665c5.873 0 10.634-4.762 10.634-10.637 0-5.875-4.761-10.637-10.634-10.637s-10.635 4.762-10.635 10.637c0 5.875 4.762 10.637 10.635 10.637z" fill="#74BFB8"></path><path d="M670.853 93.8c5.873 0 10.634-4.763 10.634-10.637 0-5.875-4.761-10.638-10.634-10.638s-10.634 4.763-10.634 10.638c0 5.874 4.761 10.637 10.634 10.637z" fill="#18233F"></path><path d="M707.286 93.8c5.873 0 10.634-4.763 10.634-10.637 0-5.875-4.761-10.638-10.634-10.638s-10.634 4.763-10.634 10.638c0 5.874 4.761 10.637 10.634 10.637z" fill="#74BFB8"></path><path d="M604.607 57.906c5.873 0 10.634-4.763 10.634-10.638s-4.761-10.637-10.634-10.637-10.635 4.762-10.635 10.637c0 5.875 4.762 10.638 10.635 10.638zm36.111 0c5.873 0 10.634-4.763 10.634-10.638s-4.761-10.637-10.634-10.637-10.634 4.762-10.634 10.637c0 5.875 4.761 10.638 10.634 10.638zm36.111 0c5.873 0 10.634-4.763 10.634-10.638s-4.761-10.637-10.634-10.637-10.634 4.762-10.634 10.637c0 5.875 4.761 10.638 10.634 10.638z" fill="#18233F"></path><path d="M713.262 57.906c5.873 0 10.634-4.763 10.634-10.638s-4.761-10.637-10.634-10.637c-5.874 0-10.635 4.762-10.635 10.637 0 5.875 4.761 10.638 10.635 10.638zm-103.13-36.415c5.874 0 10.635-4.762 10.635-10.637 0-5.875-4.761-10.637-10.635-10.637-5.873 0-10.634 4.762-10.634 10.637 0 5.875 4.761 10.637 10.634 10.637zm36.401 0c5.873 0 10.634-4.762 10.634-10.637 0-5.875-4.761-10.637-10.634-10.637s-10.634 4.762-10.634 10.637c0 5.875 4.761 10.637 10.634 10.637zm36.432 0c5.874 0 10.635-4.762 10.635-10.637 0-5.875-4.761-10.637-10.635-10.637-5.873 0-10.634 4.762-10.634 10.637 0 5.875 4.761 10.637 10.634 10.637z" fill="#74BFB8"></path><path d="M719.366 21.491c5.873 0 10.634-4.762 10.634-10.637C730 4.98 725.239.217 719.366.217s-10.634 4.762-10.634 10.637c0 5.875 4.761 10.637 10.634 10.637z" fill="#DF7A43"></path><path d="M311.797 190.501l-2.538 18.061h-5.751l2.538-18.061h-6.425l.675-4.724h18.633l-.642 4.724h-6.49zm28.304 10.444v.771h-10.955a.7.7 0 010 .258 2.827 2.827 0 003.213 2.795 13.02 13.02 0 004.979-1.253l.771 3.214a11.946 11.946 0 01-6.939 2.185 7.068 7.068 0 01-7.389-8.58 9.637 9.637 0 019.638-8.613c4.851.096 7.678 3.535 6.682 9.223zm-10.634-2.185h5.655c0-1.671-.547-2.7-2.314-2.7a3.597 3.597 0 00-3.341 2.7zm36.979-4.82l-1.574 3.406a8.549 8.549 0 00-4.145-1.157 4.79 4.79 0 00-4.691 4.564c-.321 2.346.675 3.921 3.053 3.921a10.96 10.96 0 004.787-1.35l1.06 3.696a11.863 11.863 0 01-6.426 1.992 7.355 7.355 0 01-7.649-5.519 7.353 7.353 0 01-.061-3.383 9.636 9.636 0 019.638-8.291c2.18.032 4.29.777 6.008 2.121zm27.437 4.146l-1.382 10.476h-5.461l1.413-9.866c.225-1.735-.61-2.346-1.831-2.346a7.133 7.133 0 00-4.016 1.575l-1.478 10.637h-5.462l3.213-22.785h5.43l-1.157 8.292a9.64 9.64 0 015.879-2.25 4.877 4.877 0 014.03 1.891 4.883 4.883 0 01.822 4.376zm28.208-.002l-1.478 10.445h-5.462l1.414-9.866c.225-1.768-.547-2.346-1.735-2.346a7.546 7.546 0 00-4.113 1.607l-1.477 10.605h-5.462l2.281-16.261h5.462l-.257 1.767a9.64 9.64 0 015.847-2.25 4.914 4.914 0 014.12 1.86 4.923 4.923 0 01.86 4.439zm28.497 2.668a9.643 9.643 0 01-9.896 8.259 7.492 7.492 0 01-7.87-5.468 7.48 7.48 0 01-.129-3.434 9.64 9.64 0 019.863-8.291 7.553 7.553 0 016.228 2.477 7.558 7.558 0 011.804 6.457zm-12.53 0c-.321 2.282.771 3.76 2.763 3.728a4.597 4.597 0 004.369-4.371c.322-2.153-.61-3.76-2.731-3.76a4.628 4.628 0 00-4.401 4.403zm28.915 1.737c-.225 1.703.289 2.249 1.317 2.249a4.297 4.297 0 001.542-.353l.996 3.503a11.055 11.055 0 01-4.626 1.124c-3.053 0-5.334-1.799-4.755-5.945l2.441-17.29h5.462l-2.377 16.712zm31.549-1.738a9.646 9.646 0 01-3.365 6.028 9.645 9.645 0 01-6.531 2.232 7.524 7.524 0 01-7.856-5.475 7.52 7.52 0 01-.143-3.427 9.64 9.64 0 019.895-8.292 7.55 7.55 0 018 8.934zm-12.53 0c-.289 2.282.803 3.76 2.763 3.728a4.56 4.56 0 004.369-4.37c.322-2.154-.61-3.76-2.731-3.76a4.66 4.66 0 00-4.433 4.402h.032zm39.806 6.975a8.39 8.39 0 01-9.028 7.584c-2.92 0-5.772-.873-8.192-2.506l.674-3.921a15.485 15.485 0 006.843 2.121 3.952 3.952 0 004.273-3.631v-1.029a8.798 8.798 0 01-5.108 1.8c-4.177 0-6.779-3.696-6.104-8.484a8.478 8.478 0 012.486-5.399 8.48 8.48 0 015.417-2.443 7.019 7.019 0 012.744.58 7.013 7.013 0 012.3 1.606l.225-1.736h5.462l-1.992 15.458zm-4.787-5.592l.642-4.499a4.78 4.78 0 00-3.212-1.317c-2.057 0-3.502 1.639-3.856 4.081-.353 2.442.547 3.406 2.249 3.439a6.845 6.845 0 004.177-1.704zm15.742 6.429l2.282-16.262h5.461l-2.313 16.262h-5.43zm8.771-20.568a3.212 3.212 0 01-3.212 2.7 2.904 2.904 0 01-2.211-.933 2.9 2.9 0 01-.745-2.281 3.212 3.212 0 013.213-2.7 2.902 2.902 0 012.21.933 2.887 2.887 0 01.745 2.281zm24.867 12.95v.771h-10.956v.258a2.826 2.826 0 003.213 2.795 13.026 13.026 0 004.98-1.253l.771 3.214a11.949 11.949 0 01-6.94 2.185 7.073 7.073 0 01-5.843-2.439 7.072 7.072 0 01-1.546-6.141 9.637 9.637 0 019.638-8.613c4.852.096 7.518 3.535 6.683 9.223zm-10.634-2.185h5.654c0-1.671-.546-2.7-2.313-2.7a3.596 3.596 0 00-3.341 2.7zm35.661-4.788l-2.217 2.988a6.652 6.652 0 00-4.241-1.253c-1.574 0-2.248.418-2.377 1.285-.128.868.193.804 2.088 1.318 3.052.707 6.683 1.607 6.04 5.56-.642 3.953-4.658 5.142-8.032 5.142a9.42 9.42 0 01-7.228-2.7l2.249-2.924a5.95 5.95 0 004.69 1.703c1.735 0 2.828-.482 2.956-1.478.129-.997-.546-.9-2.217-1.35-4.144-1.061-6.425-1.896-5.943-5.303.61-3.888 4.08-5.142 7.55-5.142a9.955 9.955 0 016.682 2.154z" fill="#656567"></path></g><defs><clipPath id="clip0_659_4253"><path fill="#fff" transform="translate(0 .217)" d="M0 0h730v215.125H0z"></path></clipPath></defs></svg> 